<?xml version="1.0" encoding="UTF-8" standalone="no"?>
<svg
   xmlns:dc="http://purl.org/dc/elements/1.1/"
   xmlns:cc="http://creativecommons.org/ns#"
   xmlns:rdf="http://www.w3.org/1999/02/22-rdf-syntax-ns#"
   xmlns:svg="http://www.w3.org/2000/svg"
   xmlns="http://www.w3.org/2000/svg"
   viewBox="0 0 1209.0125 256.625"
   height="256.625"
   width="1209.0125"
   xml:space="preserve"
   version="1.1"
   id="svg2"><metadata
     id="metadata8"><rdf:RDF><cc:Work
         rdf:about=""><dc:format>image/svg+xml</dc:format><dc:type
           rdf:resource="http://purl.org/dc/dcmitype/StillImage" /></cc:Work></rdf:RDF></metadata><defs
     id="defs6" /><g
     transform="matrix(1.25,0,0,-1.25,0,256.625)"
     id="g10"><g
       transform="scale(0.1,0.1)"
       id="g12"><path
         id="path14"
         style="fill:#171c38;fill-opacity:1;fill-rule:nonzero;stroke:none"
         d="m 906.512,698.48 c -62.77,125.532 -84.914,254.75 -70.496,360.52 15.82,115.95 105.484,422.22 83.839,538.84 -21.628,116.65 -153.242,257.48 -279.902,209.52 -126.644,-47.96 -137.312,-189.9 -42.586,-252.57 94.727,-62.67 194.141,-0.82 186.16,79.72 -8,80.53 -111.765,109.65 -151.836,61.5 -40.105,-48.17 2.45,-101.67 40.25,-95.78 -38.382,-32.47 -125.48,37.97 -61.527,118.18 63.949,80.2 201.188,24.26 210.395,-76.28 9.14,-99.65 -118.711,-203.43 -241.215,-120.78 -122.535,82.63 -106.821,259.03 40.375,316.04 141.886,54.99 312.383,-86.65 329.781,-218.16 21.598,-163.27 -73.023,-452.76 -92.867,-573.72 -4.207,-25.64 30.683,-264.182 49.629,-347.03" /><path
         id="path16"
         style="fill:#171c38;fill-opacity:1;fill-rule:nonzero;stroke:none"
         d="m 1522.06,704.77 c 26.9,137.699 55.85,242.199 66.22,346.87 11.53,116.45 -97.51,428.49 -75.87,545.1 21.63,116.65 153.23,257.49 279.9,209.53 126.64,-47.97 137.3,-189.91 42.58,-252.57 -94.73,-62.69 -194.14,-0.83 -186.16,79.71 8,80.54 111.76,109.66 151.84,61.52 40.11,-48.19 -2.45,-101.69 -40.24,-95.8 38.37,-32.47 125.47,37.98 61.51,118.18 -63.94,80.22 -201.18,24.26 -210.39,-76.28 -9.15,-99.65 118.71,-203.43 241.22,-120.77 122.53,82.63 106.82,259.03 -40.37,316.04 -141.9,54.99 -312.39,-86.66 -329.79,-218.16 -21.6,-163.27 105.33,-481.96 81.21,-602.14 -19.04,-94.871 -36.92,-180.922 -41.66,-311.23" /><path
         id="path18"
         style="fill:#171c38;fill-opacity:1;fill-rule:nonzero;stroke:none"
         d="M 722.855,572.57 C 618.91,594.328 513.852,597.57 411.426,479.738 308.984,361.93 318.563,199.289 429.336,92.3398 540.133,-14.6406 681.094,-11.3984 756.078,22.5 831.055,56.3984 913.891,148.34 917.586,240.641 920.215,173.359 829.34,80.4883 745.797,44.9414 662.238,9.37109 539.473,28.0508 446.313,120.82 c -93.18,92.809 -75.778,253.301 -1.875,339.93 73.941,86.691 176.48,117.52 278.417,111.82" /><path
         id="path20"
         style="fill:#171c38;fill-opacity:1;fill-rule:nonzero;stroke:none"
         d="M 717.633,548.43 C 499.684,545.422 497.184,399.719 551.023,355.371 c 53.786,-44.41 6.379,-118.762 -52.703,-44.851 -59.015,74.011 -8.961,266.019 219.313,237.91" /><path
         id="path22"
         style="fill:#171c38;fill-opacity:1;fill-rule:nonzero;stroke:none"
         d="M 264.008,709.559 C 320,858 415.398,824.648 430.887,777.141 c 15.551,-47.481 75.679,-32.922 42.23,25.289 -33.465,58.199 -170.762,70.109 -209.109,-92.871" /><path
         id="path24"
         style="fill:#171c38;fill-opacity:1;fill-rule:nonzero;stroke:none"
         d="m 921.941,553.301 c -15.429,-61.59 -14.171,-62.442 -3.898,-120.653 10.238,-58.238 -3.535,-138.289 -16.66,-197.089 -13.121,-58.778 -83.492,-135.5 -147.871,-109.95 -64.371,25.539 -67.207,104.25 -17.399,134.993 49.828,30.769 99.969,-1.543 94.481,-42.223 -5.496,-40.668 -59.418,-54.348 -79.219,-29.578 -19.824,24.777 3,51.429 22.363,48.058 -19.226,16.813 -65.25,-17.949 -33.683,-59.179 31.547,-41.239 103.125,-14.309 109.59,36.461 6.418,50.347 -57.637,104.14 -122.114,63.578 -64.468,-40.598 -59.617,-136.778 15.18,-167.098 72.098,-29.2694 156.574,31.949 173.703,113.828 17.09,81.852 27.793,168.922 19.637,230.34 -8.164,61.391 14.762,51.691 -14.11,98.512" /><path
         id="path26"
         style="fill:#171c38;fill-opacity:1;fill-rule:nonzero;stroke:none"
         d="m 1221.43,1460.83 c 60.35,152.01 163.2,114.8 179.91,65.2 16.76,-49.59 81.58,-36.22 45.54,24.97 -36.1,61.18 -184.13,77.39 -225.45,-90.17" /><path
         id="path28"
         style="fill:#171c38;fill-opacity:1;fill-rule:nonzero;stroke:none"
         d="m 699.035,1156.59 c -162.836,260.77 -349.008,162.39 -365.863,66.64 -16.934,-95.76 -145.633,-90.31 -95.192,32.36 50.536,122.68 330.028,195.84 461.055,-99" /><path
         id="path30"
         style="fill:#171c38;fill-opacity:1;fill-rule:nonzero;stroke:none"
         d="m 485.602,724.32 c 20.804,-78.09 -83.215,-149.761 -167.145,-116.422 -83.941,33.301 -87.203,138.293 -58.316,190.493 28.933,52.211 111.945,86.418 185.964,64.879 74.11,-21.5 183.043,-120.059 292.45,-302.032 -87.922,194.782 -198.649,293.024 -287.2,322.473 -89.093,29.59 -168.425,-3.922 -212.457,-76.641 -44.093,-72.691 -19.8,-188.968 71.512,-224.468 91.199,-35.532 210.785,43.347 175.192,141.718" /><path
         id="path32"
         style="fill:#171c38;fill-opacity:1;fill-rule:nonzero;stroke:none"
         d="m 530.492,1037.15 c -36.422,1.08 -52.437,45.38 -28.75,63.25 23.699,17.9 60.985,4.9 65.785,-41.42 4.735,-46.28 -89.523,-114.378 -168.429,-39.83 -78.871,74.56 -52.977,197.37 32.41,242.8 85.359,45.39 236.617,-5.89 289.176,-209.26 52.621,-203.37 37.855,-196.549 -23.219,-4.97 -61.051,191.58 -194.254,216.01 -254.695,181 -62.079,-35.98 -81.204,-126.36 -34.915,-190.15 46.168,-63.82 110.481,-26.36 122.637,-1.42" /><path
         id="path34"
         style="fill:#171c38;fill-opacity:1;fill-rule:nonzero;stroke:none"
         d="M 732.977,953.23 C 620.492,864.09 421.754,830.09 223.457,923.691 25.1602,1017.24 -23.2188,1247.57 9.30859,1396.29 35.1602,1514.45 164.961,1609.05 277.227,1608.74 391.914,1608.43 489.293,1558.75 611.141,1459.06 507.754,1510.75 413.398,1570.41 289.918,1562.44 175.457,1555.05 94.2266,1440.6 79.4609,1370.45 49.0156,1225.84 122.453,1030.6 266.504,960.949 410.672,891.238 612.902,886.148 732.977,953.23" /><path
         id="path36"
         style="fill:#171c38;fill-opacity:1;fill-rule:nonzero;stroke:none"
         d="m 1225.43,1465.84 c -60.37,152.02 -163.21,114.8 -179.91,65.21 -16.76,-49.59 -81.582,-36.23 -45.532,24.96 36.102,61.19 184.122,77.4 225.442,-90.17" /><path
         id="path38"
         style="fill:#171c38;fill-opacity:1;fill-rule:nonzero;stroke:none"
         d="m 1726.09,1156.59 c 161.57,260.77 346.3,162.39 363,66.64 16.82,-95.76 144.51,-90.31 94.45,32.36 -50.14,122.68 -327.43,195.84 -457.45,-99" /><path
         id="path40"
         style="fill:#171c38;fill-opacity:1;fill-rule:nonzero;stroke:none"
         d="m 1894.66,1037.15 c 36.39,1.08 52.42,45.38 28.73,63.25 -23.7,17.9 -60.99,4.9 -65.78,-41.42 -4.73,-46.28 89.53,-114.378 168.43,-39.83 78.87,74.56 52.98,197.37 -32.41,242.8 -85.36,45.39 -236.61,-5.89 -289.17,-209.26 -52.62,-203.37 -37.86,-196.549 23.21,-4.97 61.05,191.58 194.25,216.01 254.69,181 62.08,-35.98 81.2,-126.36 34.91,-190.15 -46.15,-63.82 -110.47,-26.36 -122.61,-1.42" /><path
         id="path42"
         style="fill:#171c38;fill-opacity:1;fill-rule:nonzero;stroke:none"
         d="m 1166.1,1751.09 c -37.62,37.62 -104.97,41.09 -130.35,1.54 -26.33,-41.02 6.57,-91.75 52.15,-90.06 45.6,1.68 56.34,51.41 35.92,74.6 -20.6,23.39 -65,12.36 -66.36,-19.28 -1.34,-31.66 33.2,-33.35 36.88,-18.28 -8.37,-8.35 -28.72,-2.75 -27.51,16.55 1.24,19.31 32.43,30.94 49.08,12.31 16.67,-18.62 3.12,-52.15 -31.93,-53.77 -35.01,-1.6 -60.63,39.07 -37.77,74.1 22.85,35 86.68,23.68 116.21,-8.03 29.5,-31.72 38.34,-64.18 47.2,-111.4 8.86,-47.2 13.28,-120.98 6.63,-179.26 11.08,58.28 7.39,133.53 1.48,174.83 -5.9,41.31 -14,88.53 -51.63,126.15" /><path
         id="path44"
         style="fill:#171c38;fill-opacity:1;fill-rule:nonzero;stroke:none"
         d="m 1408.7,1752.63 c -25.39,39.55 -92.73,36.08 -130.36,-1.54 -37.62,-37.62 -45.73,-84.84 -51.64,-126.15 -5.9,-41.3 -9.6,-116.55 1.47,-174.83 -6.64,58.28 -2.2,132.06 6.65,179.26 8.86,47.22 17.69,79.68 47.2,111.4 29.52,31.71 93.37,43.03 116.22,8.03 22.86,-35.03 -2.76,-75.7 -37.79,-74.1 -35.03,1.62 -48.59,35.15 -31.93,53.77 16.67,18.63 47.85,7 49.09,-12.31 1.22,-19.3 -19.14,-24.9 -27.51,-16.55 3.68,-15.07 38.23,-13.38 36.88,18.28 -1.36,31.64 -45.76,42.67 -66.37,19.28 -20.41,-23.19 -9.66,-72.92 35.93,-74.6 45.59,-1.69 78.48,49.04 52.16,90.06" /><path
         id="path46"
         style="fill:#171c38;fill-opacity:1;fill-rule:nonzero;stroke:none"
         d="m 1471.79,548.898 c 15.44,-61.589 14.18,-62.449 3.9,-120.66 -10.23,-58.226 3.53,-138.277 16.65,-197.09 13.12,-58.777 83.5,-135.4878 147.88,-109.949 64.37,25.551 67.22,104.25 17.39,134.992 -49.82,30.77 -99.95,-1.531 -94.47,-42.211 5.49,-40.671 59.41,-54.351 79.21,-29.582 19.83,24.782 -2.99,51.422 -22.36,48.063 19.24,16.809 65.26,-17.949 33.7,-59.191 -31.55,-41.231 -103.13,-14.29 -109.6,36.48 -6.42,50.34 57.64,104.129 122.11,63.559 64.48,-40.59 59.62,-136.77 -15.19,-167.098 -72.08,-29.2618 -156.56,31.961 -173.69,113.828 -17.1,81.871 -27.79,168.93 -19.63,230.34 8.16,61.402 -14.78,51.691 14.1,98.519" /><path
         id="path48"
         style="fill:#171c38;fill-opacity:1;fill-rule:nonzero;stroke:none"
         d="m 1672.85,571.09 c 103.95,21.738 209.02,25 311.43,-92.852 102.45,-117.797 92.87,-280.437 -17.91,-387.3982 -110.79,-106.9609 -251.75,-103.7382 -326.73,-69.8203 -74.98,33.8789 -157.82,125.8325 -161.52,218.1285 -2.62,-67.269 88.25,-160.1363 171.8,-195.6988 83.55,-35.57029 206.32,-16.8906 299.48,75.8788 93.18,92.813 75.77,253.313 1.87,339.934 -73.94,86.687 -176.47,117.519 -278.42,111.828" /><path
         id="path50"
         style="fill:#171c38;fill-opacity:1;fill-rule:nonzero;stroke:none"
         d="m 1693.12,540.262 c 217.95,-3.012 220.45,-148.711 166.61,-193.063 -53.79,-44.41 -6.38,-118.758 52.71,-44.847 59.01,74.007 8.95,266.007 -219.32,237.91" /><path
         id="path52"
         style="fill:#171c38;fill-opacity:1;fill-rule:nonzero;stroke:none"
         d="m 2163.56,709.102 c -55.98,148.437 -151.38,115.089 -166.87,67.578 -15.56,-47.489 -75.69,-32.918 -42.23,25.281 33.47,58.199 170.76,70.117 209.1,-92.859" /><path
         id="path54"
         style="fill:#171c38;fill-opacity:1;fill-rule:nonzero;stroke:none"
         d="m 1941.97,723.852 c -20.8,-78.09 83.21,-149.762 167.15,-116.411 83.94,33.297 87.2,138.289 58.31,190.489 -28.93,52.199 -111.94,86.422 -185.98,64.879 -74.09,-21.5 -183.02,-120.047 -292.43,-302.039 87.92,194.789 198.65,293.031 287.2,322.468 89.1,29.602 168.42,-3.918 212.46,-76.636 44.08,-72.68 19.8,-188.961 -71.52,-224.461 -91.19,-35.539 -210.78,43.339 -175.19,141.711" /><path
         id="path56"
         style="fill:#171c38;fill-opacity:1;fill-rule:nonzero;stroke:none"
         d="m 1694.6,952.77 c 112.48,-89.141 311.22,-123.141 509.52,-29.54 198.3,93.55 246.67,323.88 214.15,472.6 -25.85,118.15 -155.66,212.75 -267.91,212.44 -114.7,-0.29 -212.08,-49.98 -333.93,-149.67 103.39,51.69 197.75,111.34 321.23,103.38 114.45,-7.38 195.68,-121.85 210.44,-192 30.46,-144.6 -42.97,-339.84 -187.02,-409.492 -144.18,-69.707 -346.41,-74.789 -466.48,-7.718" /><path
         id="path58"
         style="fill:#171c38;fill-opacity:1;fill-rule:nonzero;stroke:none"
         d="m 922,335.512 -164.949,928.618 0,-737.509 c 0,-67.769 2.773,-110 8.426,-126.949 7.695,-22.774 19.972,-34.16 36.621,-34.16 l 14.953,0 0,-30 -150,0 0,30 14.949,0 c 17.941,0 30.637,14.16 38.215,42.5 4.594,17.226 6.836,56.937 6.836,118.609 l 0,721.129 c 0,48.88 -2.028,84.17 -6.196,105.84 -2.984,15.82 -8.316,28.87 -16.117,39.44 -7.894,10.56 -20.398,15.83 -37.687,15.83 l 0,56.65 121.105,0 155.133,-884.248 152.651,884.248 121.11,0 0,-30 -14.69,0 c -18.14,0 -30.92,-14.52 -38.39,-43.3 -4.57,-17.95 -6.92,-58.41 -6.92,-121.92 l 0,-739.56 c 0,-69.5 2.98,-112.808 8.84,-130.179 7.68,-23.36 19.83,-35.039 36.47,-35.039 l 14.69,0 0,-30 -180,0 0,30 14.65,0 c 18.27,0 31.06,14.16 38.47,42.5 4.63,17.226 6.88,56.937 6.88,118.609 l 0,737.509 -164.62,-928.618 -10.43,0 0,0" /><path
         id="path60"
         style="fill:#171c38;fill-opacity:1;fill-rule:nonzero;stroke:none"
         d="m 1462,335.512 -164.95,928.458 0,-737.392 c 0,-67.758 2.77,-109.976 8.43,-126.906 7.69,-22.774 19.97,-34.16 36.61,-34.16 l 14.96,0 0,-30 -150,0 0,30 14.96,0 c 17.93,0 30.62,14.16 38.2,42.488 4.6,17.219 6.84,56.93 6.84,118.578 l 0,721.012 c 0,48.87 -2.03,84.14 -6.2,105.81 -2.98,15.83 -8.32,28.87 -16.11,39.44 -7.9,10.55 -20.4,15.82 -37.69,15.82 l 0,56.85 121.11,0 155.13,-884.248 152.65,884.248 121.11,0 0,-30 -14.69,0 c -18.13,0 -30.93,-14.52 -38.39,-43.3 -4.56,-17.94 -6.92,-58.41 -6.92,-121.92 l 0,-739.56 c 0,-69.511 2.99,-112.808 8.84,-130.179 7.68,-23.36 19.81,-35.039 36.47,-35.039 l 14.69,0 0,-30 -180,0 0,30 14.66,0 c 18.27,0 31.05,14.16 38.47,42.488 4.62,17.219 6.87,56.93 6.87,118.578 l 0,737.392 -164.62,-928.458 -10.43,0 0,0" /><path
         id="path62"
         style="fill:#171c38;fill-opacity:1;fill-rule:nonzero;stroke:none"
         d="m 1277.2,1829.27 c -42.28,-127.87 -53.47,-249.13 -53.47,-383.19 -18.1,120.48 -0.35,257.57 42.44,371.28 21.59,57.36 50.75,113.91 95.15,156.43 31.01,29.69 76.99,71.96 122.73,72.43 11.29,0.12 54.26,-0.9 59.49,-12.77 12.34,-28.01 -31.23,-22.59 -33.48,-27.31 15.74,32.8 -42.68,31.41 -60.88,25.4 -79.13,-26.11 -147.08,-126.94 -171.98,-202.27" /><path
         id="path64"
         style="fill:#171c38;fill-opacity:1;fill-rule:nonzero;stroke:none"
         d="m 1167.23,1836 c 42.29,-127.87 53.47,-249.13 53.47,-383.19 18.1,120.47 0.35,257.56 -42.44,371.28 -21.58,57.37 -50.75,113.91 -95.15,156.43 -31,29.69 -76.97,71.95 -122.731,72.43 -11.277,0.12 -54.25,-0.9 -59.477,-12.76 -12.343,-28.03 31.215,-22.6 33.481,-27.31 -15.75,32.8 42.68,31.4 60.875,25.39 79.132,-26.12 147.072,-126.95 171.972,-202.27" /><path
         id="path66"
         style="fill:#171c38;fill-opacity:1;fill-rule:nonzero;stroke:none"
         d="m 1216.51,349.039 c 60.35,-152.019 163.2,-114.801 179.91,-65.207 16.77,49.59 81.59,36.219 45.55,-24.961 -36.11,-61.191 -184.14,-77.391 -225.46,90.168" /><path
         id="path68"
         style="fill:#171c38;fill-opacity:1;fill-rule:nonzero;stroke:none"
         d="M 1220.52,344.031 C 1160.15,192 1057.3,229.219 1040.6,278.82 c -16.76,49.578 -81.588,36.211 -45.53,-24.968 36.11,-61.18 184.11,-77.391 225.45,90.179" /><path
         id="path70"
         style="fill:#171c38;fill-opacity:1;fill-rule:nonzero;stroke:none"
         d="m 9373.49,1762.47 c -54.14,0 -97.5,-53.31 -130.2,-159.9 -40.63,-132.43 -61,-326.25 -61,-581.84 0,-262.031 21.14,-463.511 63.28,-604.429 32.4,-107.403 75.14,-161.11 128.39,-161.11 56.74,0 103.6,58.938 140.57,176.438 36.96,117.5 55.53,302.832 55.53,556 0,274.161 -20.39,478.871 -61.16,613.731 -32.7,107.4 -77.74,161.11 -135.41,161.11 z m 8.38,86 c 78.51,0 146.51,-78.75 204.01,-237.01 57.51,-158.28 86.25,-355.33 86.25,-591.93 0,-243.87 -29.06,-446.178 -87.01,-606.87 -57.96,-161.101 -128.1,-241.461 -210.39,-241.461 -83.06,0 -153.04,78.742 -209.63,235.403 -56.6,157.07 -84.89,360.168 -84.89,609.288 0,254.78 32.71,462.32 97.96,623.43 56.91,139.69 124.74,209.15 203.7,209.15 l 0,0 z M 9005.6,641.609 l 14.58,-8.339 -51.13,-427.758 -462,0 0,40 23.65,0 c 26.48,0 45.39,22.25 56.73,66.367 6.46,25.492 9.62,84.16 9.62,175.633 l 0,1037.618 c 0,100.35 -4.25,163.08 -12.92,188.18 -11.98,34.79 -29.8,52.2 -53.43,52.2 l -23.65,0 0,40 270,0 0,-66.72 c -31.75,0.79 -53.99,-6.75 -66.78,-23.01 -12.76,-16.28 -21.49,-36.9 -26.15,-61.91 -4.65,-24.6 -7.07,-84.12 -7.07,-177.77 l 0,-990.428 c 0,-64.301 2.42,-108.344 7.07,-132.551 3.47,-16.25 8.87,-28.172 16.24,-36.101 7.37,-7.54 30.21,-11.508 68.72,-11.508 l 43.6,0 c 45.86,0 78.04,8.718 96.54,26.59 18.49,17.839 35.33,49.609 50.67,94.828 15.18,45.242 30.53,117.07 45.71,214.679 l 0,0 z m -549.96,0 14.58,-8.339 -51.14,-427.758 -472.03,0 0,40 23.64,0 c 26.48,0 45.4,22.25 56.75,66.367 6.46,25.492 9.61,84.16 9.61,175.633 l 0,1037.618 c 0,100.35 -4.25,163.08 -12.92,188.18 -11.97,34.79 -29.8,52.2 -53.44,52.2 l -13.64,0 0,40 270,0 0,-66.72 c -31.72,0.79 -53.98,-6.75 -66.76,-23.01 -12.79,-16.28 -21.51,-36.9 -26.17,-61.91 -4.66,-24.6 -7.07,-84.12 -7.07,-177.77 l 0,-990.428 c 0,-64.301 2.41,-108.344 7.07,-132.551 3.47,-16.25 8.87,-28.172 16.24,-36.101 7.35,-7.54 30.22,-11.508 68.71,-11.508 l 43.61,0 c 45.88,0 78.07,8.718 96.55,26.59 18.5,17.839 35.35,49.609 50.7,94.828 15.18,45.242 30.51,117.07 45.71,214.679 l 0,0 z m -888.59,1083.901 0,-630 130.54,0 c 33.94,0 56.52,13.56 67.89,40.67 15.26,35.86 23.63,98.84 25.42,189.33 l 16.15,0 0,-559.998 -16.15,0 c -4.05,78.25 -8.22,128.508 -12.26,150.828 -5.24,27.551 -13.9,49.449 -25.87,65.262 -11.96,15.808 -30.35,23.908 -55.18,23.908 l -130.54,0 0,-532.92 c 0,-70.039 1.19,-112.61 3.45,-127.719 2.39,-15.141 6.44,-27.07 12.29,-36.223 5.83,-8.757 17.09,-13.136 33.44,-13.136 l 101.04,0 c 33.58,0 58.18,5.976 73.31,18.699 15.29,12.34 29.85,36.609 43.93,73.23 18.15,48.149 36.74,120.969 55.78,218.071 l 21.82,0 -51.76,-400 -463.3,0 0,40 22.33,0 c 14.74,0 28.84,9.308 42.15,27.508 9.99,12.55 16.65,31.558 20.29,56.671 3.48,25.489 5.23,77.278 5.23,155.379 l 0,1044.5 c 0,101.98 -3.96,164.72 -12.03,188.59 -11.1,31.57 -29.64,47.35 -55.64,47.35 l -22.33,0 0,50 464.11,0 6.67,-350 -21.76,0 c -6.16,83.22 -12.91,140.16 -20.4,171.21 -7.51,31.05 -18.45,54.95 -33.16,71.27 -11.7,11.55 -32.39,17.52 -61.95,17.52 l -163.51,0 0,0 z M 6937.34,205.512 6697.05,1557.75 l 0,-1097.48 c 0,-90.348 4.16,-146.641 12.65,-169.219 11.53,-30.36 29.94,-45.539 54.93,-45.539 l 22.42,0 0,-40 -210,0 0,40 23.34,0 c 25.55,6.047 43.65,26.636 54.45,67.816 6.55,25.043 9.74,82.781 12.21,172.41 l 0,1048.192 c -2.47,71.07 -5.34,122.34 -11.29,153.83 -4.26,23.01 -11.85,41.99 -22.97,57.35 -11.25,15.33 -55.74,23.01 -55.74,23.01 l 0,47.39 171.76,0 220,-1255.311 216.49,1255.311 171.75,0 0,-50 -22.05,0 c -27.18,0 -46.36,-20.65 -57.56,-61.51 -6.87,-25.5 -10.39,-82.96 -10.39,-173.21 l 0,-1050.56 c 0,-98.742 4.48,-160.269 13.28,-184.949 11.49,-33.179 29.73,-49.769 54.67,-49.769 l 22.05,0 0,-40 -260,0 0,40 23.92,0 c 0,0 43.96,26.636 54.47,67.816 6.52,25.043 9.72,82.781 11.61,172.41 l 0,1072.012 -234.94,-1352.238 -14.77,0 0,0 z m -896.64,630 -102.53,648.048 -105.11,-648.048 207.64,0 0,0 z m 13.4,-90 -230.7,0 -40.35,-254.582 c -10.05,-62.52 -15,-109.2 -15,-140.481 0,-24.347 4.35,-45.871 12.9,-64.551 8.7,-18.679 27.3,-30.859 56.1,-36.527 l 0,-43.859 -190,0 0,43.597 c 25.18,12.102 41.41,27.442 48.85,46.43 15.16,37.531 31.84,114.621 50.2,230.461 l 212.07,1319.51 15.48,0 209.79,-1333.631 c 16.83,-107.379 32.16,-176.797 45.96,-208.68 13.8,-31.898 33.08,-50.058 57.65,-54.09 l 0,-43.597 -240,0 0,43.859 c 23.7,3.238 39.76,14.207 48.15,32.481 8.41,17.867 12.6,40.187 12.6,66.578 0,34.922 -6,89.718 -17.69,165.242 l -36.01,231.84 0,0 z m -437.05,-500 0,-40 -260,0 0,40 22.3,0 c 25.94,0 44.76,19.418 56.47,58.269 7.43,25.09 11.23,86.188 11.23,182.508 l 0,1038.841 c 0,81.34 -2.06,135.17 -6.01,161.05 -3.17,19.84 -9.49,36.84 -18.99,51 -13.59,19.02 -27.84,28.33 -42.7,28.33 l -22.3,0 0,40 260,0 0,-40 -22.67,0 c -25.48,0 -44.05,-19.42 -55.69,-57.87 -7.71,-25.5 -11.64,-86.2 -11.64,-182.51 l 0,-1038.841 c 0,-81.34 2.03,-135.16 5.99,-161.059 3.13,-19.839 9.59,-36.832 19.33,-50.992 13.22,-19.027 27.23,-28.726 42.01,-28.726 l 22.67,0 0,0 z m -342.53,1609.998 13.97,-550 -13.97,0 c -18.57,164.59 -45.13,283.15 -79.51,355.67 -34.55,72.51 -75.84,108.78 -124.19,108.78 -40.52,0 -77.05,-27.3 -109.74,-81.89 -32.7,-54.6 -58.34,-141.37 -77.07,-260.75 -18.72,-119.36 -28.08,-268.07 -28.08,-445.289 0,-146.261 8.75,-273.39 26.55,-380.922 17.66,-107.148 44.21,-189.449 79.82,-246.898 35.46,-57.441 75.99,-85.961 121.57,-85.961 39.6,0 74.44,22.41 104.84,67.641 30.24,44.8 63.55,134.019 99.78,267.66 l 13.96,-23.641 c -30.54,-144.211 -66.3,-249.73 -106.98,-316.539 -40.84,-66.82 -89.18,-100.23 -145.37,-100.23 -101,0 -179.29,99.398 -234.7,298.621 -41.28,147.886 -62.01,322.269 -62.01,522.707 0,161.331 13.66,310.031 40.83,445.301 27.33,135.25 64.93,239.95 112.67,314.52 47.89,74.14 100.09,111.22 156.73,111.22 44.05,0 87.64,-28.52 130.47,-85.55 12.58,-17.53 21.64,-26.49 27.01,-26.49 7.99,0 15.05,7.75 21.03,22.82 7.83,21.18 13.35,51.34 16.73,89.22 l 15.66,0 0,0 z m -977.47,-823.06 c 5.78,0 10.65,0 14.76,-0.4 4.1,-0.41 7.6,-0.81 10.19,-0.81 57.65,0 101.17,33.1 130.37,99.32 29.37,66.21 43.97,150.62 43.97,253.17 0,100.13 -11.87,181.69 -35.44,244.29 -23.59,62.57 -54.93,94.06 -93.87,94.06 -17.19,0 -40.46,-7.66 -69.98,-22.6 l 0,-667.03 z m 430,-826.938 -157.55,0 -204.63,752.238 c -15.06,-1.211 -27.38,-2.02 -36.95,-2.02 -3.81,0 -7.92,0 -12.48,0.399 -4.42,0.41 -8.98,0.82 -18.39,1.621 l 0,-465.949 c 4.54,-100.942 8.8,-163.531 17.02,-188.16 11.41,-34.719 50.8,-58.129 50.8,-58.129 l 22.18,0 0,-40 -260,0 0,40 23.48,0 c 26.48,0 45.39,22.25 56.74,66.367 6.47,24.68 9.78,82.949 9.78,174.41 l 0,1038.841 c 0,101.16 -4.42,163.9 -12.92,188.18 -11.99,34.79 -29.95,52.2 -53.6,52.2 l -23.48,0 0,40 219.68,0 c 64.07,0 111.29,-12.49 141.65,-37.45 30.37,-24.57 56.18,-70.07 77.43,-136.52 21.1,-66.85 31.73,-145.79 31.73,-238 0,-98.27 -11.99,-183.64 -36.28,-256.14 -24.14,-72.08 -61.5,-123.22 -112.2,-153.029 L 4573.55,525.27 c 28.39,-105.508 52.99,-175.59 73.34,-210.211 20.49,-34.25 47.22,-56.399 80.16,-66.039 l 0,-43.508 z m -867.08,630 -102.53,648.048 -105.12,-648.048 207.65,0 0,0 z m 14.13,-90 -230.7,0 -40.35,-254.582 c -10.05,-62.52 -15,-109.2 -15,-140.481 0,-24.347 4.35,-45.871 12.9,-64.551 8.7,-18.679 27.3,-30.859 56.1,-36.527 l 0,-43.859 -190,0 0,43.597 c 25.18,12.102 41.41,27.442 48.84,46.43 15.17,37.531 31.86,114.621 50.22,230.461 l 212.06,1319.51 15.48,0 209.8,-1333.631 c 16.83,-107.379 32.15,-176.797 45.95,-208.68 13.81,-31.898 33.08,-50.058 57.65,-54.09 l 0,-43.597 -240,0 0,43.859 c 23.7,3.238 39.75,14.207 48.15,32.481 8.4,17.867 12.59,40.187 12.59,66.578 0,34.922 -5.99,89.718 -17.69,165.242 l -36,231.84 0,0 z m -857.37,-540 -239.68,1352.238 0,-1097.48 c 0,-90.348 4.15,-146.641 12.65,-169.219 11.52,-30.36 29.94,-45.539 54.93,-45.539 l 22.42,0 0,-40 -210,0 0,40 22.72,0 c 25.56,6.047 43.66,26.636 54.46,67.816 6.54,25.043 9.73,82.781 12.82,172.41 l 0,1048.192 c -3.09,71.07 -5.97,122.34 -11.91,153.83 -4.26,23.01 -11.86,41.99 -22.97,57.35 -11.25,15.33 -55.12,23.01 -55.12,23.01 l 0,47.39 171.76,0 220,-1255.311 216.49,1255.311 171.75,0 0,-50 -22.06,0 c -27.17,0 -46.36,-20.65 -57.54,-61.51 -6.87,-25.5 -10.4,-82.96 -10.4,-173.21 l 0,-1050.56 c 0,-98.742 4.47,-160.269 13.28,-184.949 11.51,-33.179 29.72,-49.769 54.66,-49.769 l 22.06,0 0,-40 -260,0 0,40 23.3,0 c 0,0 43.97,26.636 54.46,67.816 6.54,25.043 9.73,82.781 12.24,172.41 l 0,1072.012 -235.56,-1352.238 -14.76,0 0,0" /></g></g></svg>