<?xml version="1.0" encoding="UTF-8" standalone="no"?>
<svg width="722px" height="153px" viewBox="0 0 722 153" version="1.1" xmlns="http://www.w3.org/2000/svg" xmlns:xlink="http://www.w3.org/1999/xlink" xmlns:sketch="http://www.bohemiancoding.com/sketch/ns">
    <!-- Generator: Sketch 3.3.2 (12043) - http://www.bohemiancoding.com/sketch -->
    <title>Slice 1</title>
    <desc>Created with Sketch.</desc>
    <defs></defs>
    <g id="Page-1" stroke="none" stroke-width="1" fill="none" fill-rule="evenodd" sketch:type="MSPage">
        <g id="Group" sketch:type="MSLayerGroup">
            <path d="M67.5992201,100.887775 C62.9264531,91.564125 61.277567,81.965075 62.3514088,74.1098 C63.5291847,65.4976 70.2035316,42.748625 68.5925558,34.0867 C66.9824319,25.42265 57.1849558,14.9617 47.7559339,18.52405 C38.327764,22.086825 37.533777,32.629375 44.5855233,37.283975 C51.6376956,41.939425 59.0383021,37.34475 58.4440897,31.362875 C57.8485994,25.381425 50.1238383,23.2186 47.1408496,26.79455 C44.155305,30.373475 47.3231599,34.3468 50.1370431,33.90905 C47.2797121,36.320925 40.7957687,31.088325 45.5567091,25.131525 C50.3176496,19.173875 60.5338431,23.3291 61.2196366,30.7972 C61.8998926,38.199 52.3822714,45.907225 43.2620696,39.7681 C34.14059,33.63025 35.3102726,20.527925 46.2680602,16.294075 C56.8305581,12.2094 69.5232755,22.72985 70.81819,32.497625 C72.4257581,44.624575 65.382105,66.127025 63.9048802,75.111525 C63.5913746,77.01595 66.1892968,94.733775 67.5992201,100.887775" id="Fill-1" fill="#1A1918" sketch:type="MSShapeGroup"></path>
            <path d="M113.423005,100.4207 C115.425437,90.19265 117.581214,82.430875 118.352199,74.65635 C119.210932,66.00675 111.093437,42.830225 112.703987,34.1683 C114.314963,25.503825 124.112013,15.0433 133.541035,18.605225 C142.968779,22.168425 143.76234,32.71055 136.711019,37.36515 C129.659273,42.02145 122.258241,37.42635 122.853305,31.444475 C123.447943,25.4626 131.172704,23.299775 134.156119,26.875725 C137.141664,30.45465 133.973809,34.4284 131.159926,33.99065 C134.017257,36.402525 140.5012,31.169925 135.739834,25.2127 C130.979745,19.25505 120.763126,23.4107 120.077758,30.8788 C119.396224,38.2806 128.914697,45.9884 138.034473,39.849275 C147.155953,33.71185 145.98627,20.609525 135.029335,16.37525 C124.466411,12.290575 111.774119,22.811025 110.478779,32.579225 C108.870359,44.70575 118.319827,68.376975 116.524411,77.30325 C115.10682,84.350175 113.775699,90.741325 113.423005,100.4207" id="Fill-2" fill="#1A1918" sketch:type="MSShapeGroup"></path>
            <path d="M53.9276496,110.239475 C46.1896838,108.6232 38.3682301,108.382225 30.7435693,117.1351 C23.1172047,125.885 23.8302596,137.964775 32.0768201,145.909725 C40.3246584,153.854675 50.818577,153.614975 56.4003398,151.096 C61.9821027,148.57915 68.1487068,141.749825 68.4238761,134.893725 C68.6193912,139.890875 61.854315,146.78905 55.634892,149.43 C49.4150431,152.0718 40.2756732,150.684175 33.3402136,143.79365 C26.4039021,136.90015 27.6992425,124.979325 33.2009251,118.544825 C38.7051634,112.106075 46.3387693,109.81575 53.9276496,110.239475" id="Fill-3" fill="#1A1918" sketch:type="MSShapeGroup"></path>
            <path d="M53.5383233,112.03255 C37.3135563,112.2561 37.1274124,123.077875 41.1356838,126.37205 C45.1396956,129.670475 41.6106277,135.192925 37.2117522,129.703625 C32.8188401,124.20625 36.5451268,109.94495 53.5383233,112.03255" id="Fill-4" fill="#1A1918" sketch:type="MSShapeGroup"></path>
            <path d="M19.7691693,100.064125 C23.9371752,89.038775 31.0391847,91.5161 32.1922549,95.044875 C33.3500106,98.571525 37.8259847,97.490325 35.336256,93.1668 C32.8443976,88.8437 22.6239445,87.95885 19.7691693,100.064125" id="Fill-5" fill="#1A1918" sketch:type="MSShapeGroup"></path>
            <path d="M68.7480307,111.670875 C67.5992201,116.245575 67.692931,116.3089 68.4575268,120.632425 C69.2199929,124.958075 68.1947103,130.903825 67.2175611,135.27155 C66.2408378,139.637575 61.0019717,145.33555 56.2095103,143.437925 C51.4174749,141.540725 51.2061994,135.69485 54.9141699,133.41175 C58.6238442,131.125675 62.3565204,133.52565 61.948026,136.5474 C61.5386796,139.567875 57.5244448,140.584475 56.0506277,138.744225 C54.5746808,136.903975 56.2734041,134.92475 57.7152743,135.17465 C56.2840531,133.926 52.8580673,136.507875 55.2072295,139.570425 C57.5559658,142.6334 62.8847091,140.632925 63.3660425,136.8619 C63.8439681,133.122325 59.0753605,129.1269 54.2756578,132.14015 C49.4759552,135.155525 49.8371681,142.29935 55.4053003,144.551425 C60.7728059,146.7253 67.0616602,142.178225 68.3365546,136.096475 C69.6088932,130.016425 70.405436,123.55005 69.7980189,118.9881 C69.1906018,114.427425 70.8974183,115.14865 68.7480307,111.670875" id="Fill-6" fill="#1A1918" sketch:type="MSShapeGroup"></path>
            <path d="M91.0427091,44.263325 C95.5357215,32.97235 103.191903,35.73655 104.436129,39.420025 C105.684188,43.1035 110.509448,42.110275 107.826334,37.56575 C105.13896,33.02165 94.1189829,31.817625 91.0427091,44.263325" id="Fill-7" fill="#1A1918" sketch:type="MSShapeGroup"></path>
            <path d="M52.1539575,66.860575 C40.0320248,47.49205 26.1726065,54.79865 24.9181581,61.9106 C23.6573204,69.023825 14.0766572,68.6188 17.8314832,59.50765 C21.5935504,50.39565 42.3999292,44.961175 52.1539575,66.860575" id="Fill-8" fill="#1A1918" sketch:type="MSShapeGroup"></path>
            <path d="M36.265272,98.968475 C37.8140578,104.76845 30.0705546,110.091575 23.8225923,107.6151 C17.5737782,105.1416 17.3309817,97.3437 19.4812212,93.46685 C21.6352944,89.588725 27.8146773,87.047225 33.325305,88.646925 C38.8423221,90.244075 46.9517239,97.5647 55.0960543,111.080975 C48.5507729,96.61355 40.308046,89.316725 33.7159091,87.12925 C27.0833062,84.93115 21.1778147,87.420375 17.9000625,92.822125 C14.6171988,98.2209 16.4258195,106.85775 23.2236944,109.49445 C30.0126242,112.1337 38.9147351,106.275075 36.265272,98.968475" id="Fill-9" fill="#1A1918" sketch:type="MSShapeGroup"></path>
            <path d="M39.606918,75.732875 C36.8956909,75.652125 35.7034324,72.3622 37.4669015,71.0345 C39.2316484,69.7051 42.0067693,70.6707 42.3641487,74.11065 C42.7164165,77.54805 35.6995988,82.606825 29.8256283,77.0695 C23.9542136,71.531325 25.8821027,62.409975 32.2386844,59.035475 C38.5931363,55.66395 49.8529286,59.472375 53.7657853,74.57815 C57.6829015,89.6835 56.583928,89.1769 52.0372448,74.9479 C47.4922655,60.717625 37.5763729,58.902875 33.0765451,61.503025 C28.4557451,64.17585 27.0317652,70.88915 30.4777711,75.62705 C33.9144059,80.367075 38.7017558,77.585025 39.606918,75.732875" id="Fill-10" fill="#1A1918" sketch:type="MSShapeGroup"></path>
            <path d="M54.6807445,81.9655 C46.3072484,88.586575 31.5119988,91.111925 16.7504,84.15935 C1.98837522,77.211025 -1.6131056,60.10265 0.808469617,49.0569 C2.73295103,40.281075 12.3958242,33.25455 20.7531339,33.277075 C29.2910501,33.2996 36.5400153,36.9903 45.6108059,44.39465 C37.9145841,40.5552 30.8905251,36.124575 21.6974844,36.71575 C13.1774584,37.264425 7.13012271,45.766125 6.0307233,50.9762 C3.76462301,61.717225 9.23137699,76.21865 19.9548873,81.392175 C30.6873428,86.56995 45.7424271,86.947775 54.6807445,81.9655" id="Fill-11" fill="#1A1918" sketch:type="MSShapeGroup"></path>
            <path d="M91.3408802,43.891025 C86.8470159,32.60005 79.1904083,35.363825 77.9474608,39.047725 C76.6998277,42.730775 71.8741416,41.7384 74.5581074,37.19345 C77.2459068,32.648925 88.2646065,31.445325 91.3408802,43.891025" id="Fill-12" fill="#1A1918" sketch:type="MSShapeGroup"></path>
            <path d="M128.611841,66.860575 C140.639211,47.49205 154.391713,54.79865 155.634661,61.9106 C156.886553,69.023825 166.392248,68.6188 162.665961,59.50765 C158.933285,50.39565 138.2909,44.961175 128.611841,66.860575" id="Fill-13" fill="#1A1918" sketch:type="MSShapeGroup"></path>
            <path d="M141.160158,75.732875 C143.869681,75.652125 145.062792,72.3622 143.299323,71.0345 C141.534576,69.7051 138.759029,70.6707 138.402076,74.11065 C138.050234,77.54805 145.067051,82.606825 150.941448,77.0695 C156.812437,71.531325 154.884973,62.409975 148.527966,59.035475 C142.173514,55.66395 130.913722,59.472375 127.001291,74.57815 C123.084175,89.6835 124.182722,89.1769 128.728979,74.9479 C133.273959,60.717625 143.190277,58.902875 147.689253,61.503025 C152.310905,64.17585 153.734459,70.88915 150.288453,75.62705 C146.852244,80.367075 142.064468,77.585025 141.160158,75.732875" id="Fill-14" fill="#1A1918" sketch:type="MSShapeGroup"></path>
            <path d="M86.9236885,22.703925 C84.12301,19.90955 79.1099021,19.652 77.2199233,22.5896 C75.2600873,25.636 77.7093499,29.404475 81.1025369,29.2791 C84.4974277,29.153725 85.2965263,25.46005 83.7767056,23.73795 C82.2428283,22.00055 78.9373888,22.81995 78.8364366,25.169775 C78.7367622,27.5213 81.3082749,27.6471 81.5817404,26.527225 C80.9589888,27.147725 79.4438537,26.73165 79.5345829,25.29855 C79.626164,23.864175 81.9480649,23.00015 83.1876047,24.38395 C84.4284224,25.7669 83.4201782,28.2574 80.8107552,28.377675 C78.2043139,28.496675 76.2968708,25.4762 77.9990018,22.87435 C79.6994289,20.2742 84.4518501,21.115275 86.650223,23.4702 C88.8464661,25.8264 89.5041463,28.23785 90.1639563,31.74495 C90.8233404,35.250775 91.1526065,40.7303 90.6572165,45.05935 C91.4822985,40.7303 91.2071292,35.141975 90.7679658,32.0739 C90.3288024,29.0054 89.7256448,25.4983 86.9236885,22.703925" id="Fill-15" fill="#1A1918" sketch:type="MSShapeGroup"></path>
            <path d="M104.984337,22.5896 C103.093933,19.652 98.0808248,19.90955 95.2801463,22.703925 C92.4790419,25.4983 91.8746065,29.0054 91.4354431,32.0739 C90.9962796,35.141975 90.7206844,40.7303 91.5449145,45.05935 C91.0503764,40.7303 91.3804944,35.250775 92.0398785,31.74495 C92.6988366,28.23785 93.3565168,25.8264 95.5531858,23.4702 C97.7507068,21.115275 102.504406,20.2742 104.205685,22.87435 C105.906964,25.4762 103.999947,28.496675 101.391802,28.377675 C98.7840826,28.2574 97.7749864,25.7669 99.0153782,24.38395 C100.256196,23.00015 102.576819,23.864175 102.669678,25.29855 C102.760407,26.73165 101.244846,27.147725 100.621668,26.527225 C100.89556,27.6471 103.467499,27.5213 103.366546,25.169775 C103.26602,22.81995 99.9605805,22.00055 98.4262773,23.73795 C96.9068826,25.46005 97.706833,29.153725 101.100872,29.2791 C104.494911,29.404475 106.943747,25.636 104.984337,22.5896" id="Fill-16" fill="#1A1918" sketch:type="MSShapeGroup"></path>
            <path d="M109.680958,111.9977 C110.829769,116.572825 110.735632,116.63615 109.971036,120.959675 C109.208996,125.285325 110.234278,131.23065 111.210576,135.598375 C112.187299,139.964825 117.426165,145.6628 122.219053,143.76475 C127.011088,141.86755 127.223215,136.021675 123.513541,133.738575 C119.804719,131.452925 116.072894,133.852475 116.481389,136.874225 C116.889883,139.8947 120.903692,140.9113 122.377935,139.071475 C123.853882,137.2308 122.155159,135.251575 120.713288,135.501475 C122.144936,134.252825 125.570922,136.8347 123.221759,139.89725 C120.873023,142.960225 115.54428,140.95975 115.06252,137.188725 C114.585021,133.44915 119.354054,129.45415 124.153331,132.466975 C128.953034,135.482775 128.591821,142.626175 123.022837,144.87825 C117.656609,147.05255 111.367329,142.505475 110.092434,136.423725 C108.81967,130.343675 108.023553,123.876875 108.63097,119.314925 C109.238387,114.754675 107.531145,115.475475 109.680958,111.9977" id="Fill-17" fill="#1A1918" sketch:type="MSShapeGroup"></path>
            <path d="M124.648295,110.349975 C132.386261,108.734125 140.208566,108.492725 147.832375,117.2456 C155.45874,125.9955 154.746111,138.0757 146.498699,146.020225 C138.251712,153.965175 127.757368,153.725475 122.176031,151.206925 C116.594268,148.68965 110.427238,141.86075 110.151642,135.00465 C109.956979,140.001375 116.721629,146.89955 122.941478,149.5405 C129.160901,152.182725 138.300697,150.794675 145.235731,143.904575 C152.172042,137.01065 150.876702,125.089825 145.375019,118.655325 C139.870781,112.216575 132.237601,109.926675 124.648295,110.349975" id="Fill-18" fill="#1A1918" sketch:type="MSShapeGroup"></path>
            <path d="M126.157467,112.639875 C142.382234,112.863425 142.568804,123.6852 138.560532,126.979375 C134.556094,130.2778 138.085162,135.799825 142.483612,130.31095 C146.877376,124.813575 143.150237,110.55185 126.157467,112.639875" id="Fill-19" fill="#1A1918" sketch:type="MSShapeGroup"></path>
            <path d="M161.178513,100.09855 C157.011359,89.0732 149.908924,91.550525 148.755854,95.078875 C147.597672,98.606375 143.122124,97.524325 145.611853,93.2008 C148.103711,88.878125 158.324164,87.99285 161.178513,100.09855" id="Fill-20" fill="#1A1918" sketch:type="MSShapeGroup"></path>
            <path d="M144.682837,99.0029 C143.133625,104.8033 150.877554,110.126 157.125516,107.6491 C163.373904,105.176025 163.617127,97.3777 161.466461,93.50085 C159.312388,89.62315 153.133431,87.082075 147.621952,88.68135 C142.106212,90.278925 133.997237,97.5987 125.85248,111.1154 C132.397336,96.64755 140.640063,89.35115 147.232625,87.163675 C153.864802,84.965575 159.769868,87.455225 163.048046,92.85655 C166.330058,98.2549 164.522289,106.892175 157.724414,109.528875 C150.935484,112.168125 142.032947,106.3095 144.682837,99.0029" id="Fill-21" fill="#1A1918" sketch:type="MSShapeGroup"></path>
            <path d="M126.267364,81.999925 C134.64086,88.621 149.435684,91.14635 164.197709,84.193775 C178.959733,77.24545 182.560362,60.137075 180.139639,49.0909 C178.215158,40.3155 168.552284,33.288975 160.195401,33.3115 C151.657058,33.3336 144.407241,37.024725 135.337303,44.429075 C143.033524,40.589625 150.058009,36.158575 159.250198,36.7506 C167.770224,37.29885 173.81756,45.80055 174.916533,51.01105 C177.183486,61.752075 171.716732,76.253075 160.994073,81.427025 C150.260766,86.604375 135.206107,86.9822 126.267364,81.999925" id="Fill-22" fill="#1A1918" sketch:type="MSShapeGroup"></path>
            <path d="M68.8451493,127.530175 L56.6001145,56.908775 L56.6001145,112.996025 C56.6001145,118.150425 56.8071304,121.361725 57.2296814,122.650325 C57.8047257,124.382625 58.7218147,125.248775 59.9660401,125.248775 L61.0833298,125.248775 L61.0833298,127.530175 L50.0586667,127.530175 L50.0586667,125.248775 L51.1759563,125.248775 C52.5160224,125.248775 53.4650584,124.1714 54.0311575,122.01665 C54.3740543,120.706375 54.541882,117.6859 54.541882,112.996025 L54.541882,58.15445 C54.541882,54.436975 54.3902407,51.753525 54.0788649,50.105375 C53.8560885,48.901775 53.4573912,47.9094 52.8746796,47.105725 C52.2847268,46.303325 51.3505994,45.902125 50.0586667,45.902125 L50.0586667,43.599475 L59.0327646,43.599475 L70.5281121,109.2777 L81.8398714,43.599475 L90.8139693,43.599475 L90.8139693,45.902125 L89.714144,45.902125 C88.3570395,45.902125 87.4003363,46.979075 86.8414785,49.113 C86.4990077,50.4441 86.3230867,53.44375 86.3230867,58.15445 L86.3230867,112.996025 C86.3230867,118.150425 86.546715,121.361725 86.9850265,122.650325 C87.5596448,124.382625 88.4686407,125.248775 89.714144,125.248775 L90.8139693,125.248775 L90.8139693,127.530175 L77.3489888,127.530175 L77.3489888,125.248775 L78.4735198,125.248775 C79.8297723,125.248775 80.7792342,124.1714 81.3295729,122.01665 C81.6724696,120.706375 81.8398714,117.6859 81.8398714,112.996025 L81.8398714,56.908775 L69.6191162,127.530175 L68.8451493,127.530175" id="Fill-23" fill="#1A1918" sketch:type="MSShapeGroup"></path>
            <path d="M108.863117,127.531875 L96.6180826,56.91005 L96.6180826,112.997725 C96.6180826,118.152125 96.8255245,121.363 97.2480755,122.6516 C97.8222678,124.3839 98.7402088,125.25005 99.9840083,125.25005 L101.101724,125.25005 L101.101724,127.531875 L90.0762088,127.531875 L90.0762088,125.25005 L91.1939245,125.25005 C92.5335646,125.25005 93.4826006,124.172675 94.0491257,122.017925 C94.3924484,120.708075 94.5598501,117.6876 94.5598501,112.997725 L94.5598501,58.155725 C94.5598501,54.43825 94.4086348,51.755225 94.096833,50.107075 C93.8736307,48.903475 93.4749333,47.9111 92.8922218,47.107425 C92.302269,46.305025 91.3685676,45.903825 90.0762088,45.903825 L90.0762088,43.601175 L99.0503068,43.601175 L110.54608,109.2794 L121.858265,43.601175 L130.832363,43.601175 L130.832363,45.903825 L129.732538,45.903825 C128.375434,45.903825 127.417878,46.980775 126.859873,49.114275 C126.517828,50.445375 126.341481,53.44545 126.341481,58.155725 L126.341481,112.997725 C126.341481,118.152125 126.565109,121.363 127.002995,122.6516 C127.577613,124.3839 128.486183,125.25005 129.732538,125.25005 L130.832363,125.25005 L130.832363,127.531875 L117.367383,127.531875 L117.367383,125.25005 L118.491914,125.25005 C119.849018,125.25005 120.797202,124.172675 121.347967,122.017925 C121.690864,120.708075 121.858265,117.6876 121.858265,112.997725 L121.858265,56.91005 L109.63751,127.531875 L108.863117,127.531875" id="Fill-24" fill="#1A1918" sketch:type="MSShapeGroup"></path>
            <g id="Group-28" transform="translate(66.875516, 0.000000)" fill="#0B0B0A" sketch:type="MSShapeGroup">
                <path d="M28.3190124,16.89715 C25.1716035,26.394625 24.3388543,35.40165 24.3388543,45.35855 C22.9915469,36.410175 24.3124448,26.2276 27.497764,17.782 C29.1049062,13.520525 31.2760177,9.3211 34.5814572,6.1625 C36.8897274,3.957175 40.3127316,0.818125 43.7178454,0.78285 C44.5582619,0.773925 47.7572118,0.849575 48.1465381,1.731025 C49.064905,3.811825 45.8220814,3.40935 45.6538277,3.75955 C46.8260661,1.32345 42.4766018,1.42715 41.1224791,1.8734 C35.2310442,3.812675 30.1732106,11.302025 28.3190124,16.89715" id="Fill-25"></path>
                <path d="M20.1329381,16.39735 C23.2803469,25.894825 24.1130962,34.90185 24.1130962,44.85875 C25.4604035,35.910375 24.1395056,25.728225 20.9537605,17.281775 C19.3474702,13.020725 17.1759327,8.8213 13.8704932,5.6627 C11.562649,3.457375 8.1400708,0.318325 4.73367906,0.282625 C3.89454041,0.274125 0.695164602,0.349775 0.306264307,1.2308 C-0.612528614,3.312025 2.63029499,2.90955 2.79854867,3.259325 C1.62588437,0.823225 5.97577463,0.92735 7.3303233,1.373175 C13.2213322,3.3133 18.2787398,10.802225 20.1329381,16.39735" id="Fill-27"></path>
            </g>
            <path d="M90.6768106,126.84295 C95.169823,138.133925 102.826005,135.369725 104.069804,131.68625 C105.318289,128.002775 110.143549,128.995575 107.460435,133.5401 C104.773062,138.084625 93.7526584,139.28865 90.6768106,126.84295" id="Fill-29" fill="#1A1918" sketch:type="MSShapeGroup"></path>
            <path d="M90.9749817,127.21525 C86.4806914,138.506225 78.8245097,135.742025 77.5815622,132.05855 C76.3339292,128.375075 71.5078171,129.3683 74.1922088,133.912825 C76.8795823,138.45735 87.898282,139.66095 90.9749817,127.21525" id="Fill-30" fill="#1A1918" sketch:type="MSShapeGroup"></path>
            <path d="M699.662726,27.2367269 C695.633156,27.2367269 692.404389,31.1964519 689.972165,39.1137769 C686.947858,48.9499769 685.431445,63.3460019 685.431445,82.3299019 C685.431445,101.792777 687.003233,116.758302 690.142549,127.224777 C692.553475,135.202452 695.735386,139.191927 699.701062,139.191927 C703.922313,139.191927 707.410914,134.813152 710.162608,126.085777 C712.914301,117.358402 714.298667,103.593077 714.298667,84.7885269 C714.298667,64.4259269 712.777994,49.2207019 709.745168,39.2043019 C707.308684,31.2262019 703.956389,27.2367269 699.662726,27.2367269 L699.662726,27.2367269 Z M700.288885,20.8494019 C706.133038,20.8494019 711.193428,26.6982519 715.474313,38.4537519 C719.755198,50.2101019 721.89777,64.8462519 721.89777,82.4195769 C721.89777,100.533502 719.7339,115.559802 715.418938,127.495502 C711.103976,139.460952 705.881723,145.430077 699.756437,145.430077 C693.571516,145.430077 688.362041,139.581227 684.14931,127.945152 C679.936578,116.278477 677.832342,101.193527 677.832342,82.6903019 C677.832342,63.7663269 680.264566,48.3507269 685.124755,36.3844269 C689.358785,26.0084769 694.410655,20.8494019 700.288885,20.8494019 L700.288885,20.8494019 Z M672.882702,109.740702 L673.981676,110.370977 L670.131009,142.700727 L635.291847,142.700727 L635.291847,139.460952 L636.995681,139.460952 C638.895457,139.460952 640.254265,137.812377 641.072106,134.542852 C641.536401,132.653302 641.762159,128.305552 641.762159,121.527227 L641.762159,44.6319769 C641.762159,37.1944769 641.455469,32.5462519 640.833569,30.6860269 C639.973133,28.1075519 638.690997,26.8176769 636.995681,26.8176769 L635.291847,26.8176769 L635.291847,23.5490019 L655.669711,23.5490019 L655.669711,26.8176769 C653.275823,26.7577519 651.601805,27.3272519 650.639139,28.5567769 C649.676472,29.7867269 649.020496,31.3456269 648.671209,33.2360269 C648.317664,35.0954019 648.138761,39.5936019 648.138761,46.6715519 L648.138761,121.527227 C648.138761,126.386252 648.317664,129.714852 648.671209,131.544477 C648.931044,132.773152 649.335705,133.673727 649.893711,134.272977 C650.447457,134.842477 652.16833,135.142952 655.069109,135.142952 L658.353251,135.142952 C661.807776,135.142952 664.231481,134.483777 665.624366,133.133127 C667.017251,131.784602 668.282348,129.383777 669.440956,125.966352 C670.582525,122.547227 671.736873,117.118702 672.882702,109.740702 L672.882702,109.740702 Z M631.377286,109.740702 L632.47626,110.370977 L628.625593,142.700727 L593.789412,142.700727 L593.789412,139.460952 L595.488562,139.460952 C597.390041,139.460952 598.749701,137.812377 599.564986,134.542852 C600.029281,132.653302 600.255465,128.305552 600.255465,121.527227 L600.255465,44.6319769 C600.255465,37.1944769 599.950053,32.5462519 599.326876,30.6860269 C598.466865,28.1075519 597.186433,26.8176769 595.488562,26.8176769 L593.789412,26.8176769 L593.789412,23.5490019 L614.162165,23.5490019 L614.162165,26.8176769 C611.773815,26.7577519 610.096815,27.3272519 609.135001,28.5567769 C608.171482,29.7867269 607.51508,31.3456269 607.16409,33.2360269 C606.8131,35.0954019 606.631641,39.5936019 606.631641,46.6715519 L606.631641,121.527227 C606.631641,126.386252 606.8131,129.714852 607.16409,131.544477 C607.425202,132.773152 607.831993,133.673727 608.387017,134.272977 C608.941189,134.842477 610.66334,135.142952 613.561563,135.142952 L616.846131,135.142952 C620.301508,135.142952 622.724787,134.483777 624.11682,133.133127 C625.510131,131.784602 626.776932,129.383777 627.93554,125.966352 C629.077109,122.547227 630.231457,117.118702 631.377286,109.740702 L631.377286,109.740702 Z M565.126225,30.0566019 L565.126225,77.1419269 L575.012301,77.1419269 C577.582962,77.1419269 579.29276,76.1219269 580.154048,74.0823519 C581.309248,71.3836019 581.943501,66.6457019 582.078956,59.8372019 L583.301883,59.8372019 L583.301883,101.313802 L582.078956,101.313802 C581.772691,95.5257269 581.45663,91.8078269 581.150366,90.1567019 C580.753798,88.1179769 580.097396,86.4987269 579.191382,85.3291269 C578.285368,84.1595269 576.892483,83.5602769 575.012301,83.5602769 L565.126225,83.5602769 L565.126225,122.846852 C565.126225,128.125352 565.216103,131.333677 565.386912,132.473527 C565.567093,133.613802 565.873357,134.513527 566.315076,135.202452 C566.755943,135.862477 567.606583,136.193127 568.841011,136.193127 L576.473339,136.193127 C579.009923,136.193127 580.867529,135.742202 582.011654,134.783402 C583.165576,133.853077 584.265402,132.024302 585.329447,129.264352 C586.699756,125.636127 588.104142,120.147677 589.542604,112.829602 L590.867762,112.829602 L586.994093,142.700727 L552.317647,142.700727 L552.317647,139.460952 L553.91414,139.460952 C554.967536,139.460952 555.974929,138.771177 556.92652,137.422227 C557.640427,136.492752 558.116223,135.083027 558.376058,133.222802 C558.62567,131.333677 558.750476,127.495502 558.750476,121.708277 L558.750476,44.3026019 C558.750476,36.7444019 558.467213,32.0961769 557.890039,30.3264769 C557.09733,27.9872769 555.771746,26.8176769 553.91414,26.8176769 L552.317647,26.8176769 L552.317647,23.5490019 L586.994093,23.5490019 L587.492465,49.6406019 L586.190309,49.6406019 C585.725588,43.3718519 585.216142,39.0836019 584.650468,36.7444019 C584.083943,34.4056269 583.257158,32.6057519 582.147109,31.3766519 C581.263671,30.5066769 579.701254,30.0566019 577.470083,30.0566019 L565.126225,30.0566019 L565.126225,30.0566019 Z M518.308253,142.700727 L500.92573,42.4432269 L500.92573,122.066552 C500.92573,129.383777 501.220067,133.943602 501.819817,135.772802 C502.635102,138.231427 503.937258,139.460952 505.704135,139.460952 L507.289979,139.460952 L507.289979,142.700727 L491.639404,142.700727 L491.639404,139.460952 L493.224822,139.460952 C495.126728,139.460952 496.474461,137.931802 497.278245,134.873077 C497.765968,133.012852 498.002801,128.724602 498.002801,122.066552 L498.002801,44.2120769 C498.002801,38.9335769 497.78897,35.1251519 497.346399,32.7859519 C497.029486,31.0770269 496.463812,29.6673019 495.637027,28.5270269 C494.799166,27.3880269 493.473582,26.8176769 491.639404,26.8176769 L491.639404,23.5490019 L504.379829,23.5490019 L520.698733,116.788052 L536.757802,23.5490019 L549.497375,23.5490019 L549.497375,26.8176769 L547.934958,26.8176769 C546.009625,26.8176769 544.651242,28.3476769 543.857681,31.3766519 C543.370811,33.2657769 543.121199,37.5238519 543.121199,44.2120769 L543.121199,122.066552 C543.121199,129.383777 543.438964,133.943602 544.062142,135.772802 C544.876575,138.231427 546.167655,139.460952 547.934958,139.460952 L549.497375,139.460952 L549.497375,142.700727 L530.380774,142.700727 L530.380774,139.460952 L531.978119,139.460952 C533.903453,139.460952 535.251186,137.931802 536.033246,134.873077 C536.518839,133.012852 536.757802,128.724602 536.757802,122.066552 L536.757802,42.4432269 L519.408078,142.700727 L518.308253,142.700727 L518.308253,142.700727 Z M451.560098,96.3060269 L443.927344,48.1713769 L436.102057,96.3060269 L451.560098,96.3060269 L451.560098,96.3060269 Z M452.488262,102.813202 L435.071237,102.813202 L432.02478,121.617752 C431.266147,126.236227 430.892156,129.684252 430.892156,131.994552 C430.892156,133.793152 431.220996,135.382652 431.865897,136.762202 C432.523152,138.142602 433.927537,139.041902 436.102057,139.460952 L436.102057,142.700727 L421.934244,142.700727 L421.934244,139.460952 C423.814,138.562077 425.025853,137.422227 425.580877,136.012077 C426.713075,133.222802 427.958578,127.495502 429.329313,118.888402 L445.161346,20.8494019 L446.316972,20.8494019 L461.979048,119.937727 C463.235626,127.915402 464.379751,133.073627 465.410145,135.442577 C466.440539,137.812377 467.879428,139.162177 469.714032,139.460952 L469.714032,142.700727 L451.95624,142.700727 L451.95624,139.460952 C453.745692,139.222102 454.957545,138.411627 455.591797,137.061827 C456.226476,135.742202 456.543389,134.092777 456.543389,132.143727 C456.543389,129.563977 456.089743,125.516277 455.20673,119.937727 L452.488262,102.813202 L452.488262,102.813202 Z M419.74865,139.460952 L419.74865,142.700727 L400.462518,142.700727 L400.462518,139.460952 L402.059011,139.460952 C403.916617,139.460952 405.263924,138.021477 406.102211,135.142952 C406.634234,133.283577 406.905995,128.755627 406.905995,121.617752 L406.905995,44.6319769 C406.905995,38.6037769 406.75904,34.6147269 406.475777,32.6962769 C406.249167,31.2262019 405.796373,29.9669269 405.116543,28.9171769 C404.142801,27.5074519 403.123482,26.8176769 402.059011,26.8176769 L400.462518,26.8176769 L400.462518,23.5490019 L419.74865,23.5490019 L419.74865,26.8176769 L418.117654,26.8176769 C416.28305,26.8176769 414.946392,28.2571519 414.108957,31.1059269 C413.553933,32.9959019 413.271096,37.4941019 413.271096,44.6319769 L413.271096,121.617752 C413.271096,127.644677 413.417626,131.634152 413.70174,133.553452 C413.927499,135.023527 414.392219,136.282802 415.093773,137.331702 C416.045365,138.742277 417.053183,139.460952 418.117654,139.460952 L419.74865,139.460952 L419.74865,139.460952 Z M394.358104,20.8494019 L395.388498,61.3366019 L394.358104,61.3366019 C392.988221,49.2207019 391.028811,40.4933269 388.492227,35.1549019 C385.943716,29.8169019 382.897259,27.1470519 379.329855,27.1470519 C376.340051,27.1470519 373.645436,29.1568769 371.232806,33.1752519 C368.820602,37.1944769 366.929345,43.5818019 365.547535,52.3691019 C364.166151,61.1564019 363.475672,72.1027019 363.475672,85.1489269 C363.475672,95.9150269 364.120573,105.273527 365.43423,113.190002 C366.736812,121.077152 368.696222,127.135102 371.323535,131.364277 C373.939773,135.592602 376.929152,137.692102 380.292522,137.692102 C383.214172,137.692102 385.785259,136.042677 388.027506,132.713227 C390.258677,129.415227 392.716459,122.846852 395.388498,113.009802 L396.419318,114.749327 C394.165571,125.366252 391.527182,133.133127 388.525877,138.051652 C385.513497,142.970602 381.946519,145.430077 377.801089,145.430077 C370.348942,145.430077 364.573794,138.112002 360.485442,123.446952 C357.439411,112.560577 355.910219,99.7243019 355.910219,84.9687269 C355.910219,73.0929519 356.918038,62.1466519 358.922599,52.1889019 C360.938236,42.2332769 363.712931,34.5259019 367.235609,29.0366019 C370.768937,23.5787519 374.619604,20.8494019 378.798258,20.8494019 C382.047897,20.8494019 385.264312,22.9489019 388.424073,27.1470519 C389.352663,28.4373519 390.020992,29.0969519 390.417134,29.0969519 C391.006235,29.0969519 391.527182,28.5270269 391.968476,27.4169269 C392.546501,25.8580269 392.954144,23.6386769 393.20333,20.8494019 L394.358104,20.8494019 L394.358104,20.8494019 Z M322.09421,81.4599269 C322.524854,81.4599269 322.887345,81.4599269 323.192758,81.4901019 C323.498596,81.5198519 323.758857,81.5496019 323.95139,81.5496019 C328.243776,81.5496019 331.483192,79.0909769 333.656859,74.1728769 C335.842879,69.2547769 336.929926,62.9860269 336.929926,55.3683269 C336.929926,47.9316769 336.046487,41.8728769 334.291537,37.2233769 C332.535736,32.5760019 330.20276,30.2368019 327.303685,30.2368019 C326.024105,30.2368019 324.291305,30.8063019 322.09421,31.9159769 L322.09421,81.4599269 L322.09421,81.4599269 Z M354.05304,142.700727 L342.037596,142.700727 L326.805313,87.0083019 C325.68419,87.0979769 324.767101,87.1587519 324.054046,87.1587519 C323.770783,87.1587519 323.464519,87.1587519 323.12503,87.1285769 C322.796616,87.0979769 322.457127,87.0682269 322.09421,87.0083019 L322.09421,121.617752 C322.09421,129.114752 322.411549,133.763402 323.023226,135.592602 C323.872588,138.171927 325.129166,139.460952 326.805313,139.460952 L328.57219,139.460952 L328.57219,142.700727 L309.297559,142.700727 L309.297559,139.460952 L310.984355,139.460952 C312.887113,139.460952 314.245921,137.812377 315.061632,134.542852 C315.525927,132.713227 315.764038,128.395227 315.764038,121.617752 L315.764038,44.6319769 C315.764038,37.1345519 315.446699,32.4854769 314.835448,30.6860269 C313.974585,28.1075519 312.683504,26.8176769 310.984355,26.8176769 L309.297559,26.8176769 L309.297559,23.5490019 L325.68419,23.5490019 C330.463447,23.5490019 333.985273,24.4784769 336.250096,26.3378519 C338.51577,28.1674769 340.440677,31.5555769 342.026096,36.5047019 C343.600013,41.4827269 344.393148,47.3613269 344.393148,54.2284769 C344.393148,61.5465519 343.498209,67.9041269 341.686181,73.3029019 C339.886079,78.6710769 337.099457,82.4795019 333.31737,84.6988519 L342.603696,118.888402 C344.721136,126.745802 346.556166,131.964377 348.073857,134.542852 C349.602197,137.092852 351.595684,138.742277 354.05304,139.460952 L354.05304,142.700727 L354.05304,142.700727 Z M289.218291,96.3060269 L281.585537,48.1713769 L273.759824,96.3060269 L289.218291,96.3060269 L289.218291,96.3060269 Z M290.146881,102.813202 L272.729004,102.813202 L269.682973,121.617752 C268.923915,126.236227 268.550349,129.684252 268.550349,131.994552 C268.550349,133.793152 268.878763,135.382652 269.524517,136.762202 C270.181345,138.142602 271.585731,139.041902 273.759824,139.460952 L273.759824,142.700727 L259.592864,142.700727 L259.592864,139.460952 C261.472194,138.562077 262.684046,137.422227 263.238644,136.012077 C264.371268,133.222802 265.617198,127.495502 266.987933,118.888402 L282.81954,20.8494019 L283.975166,20.8494019 L299.637241,119.937727 C300.894245,127.915402 302.037945,133.073627 303.068339,135.442577 C304.099159,137.812377 305.537621,139.162177 307.372225,139.460952 L307.372225,142.700727 L289.614859,142.700727 L289.614859,139.460952 C291.404312,139.222102 292.615738,138.411627 293.249991,137.061827 C293.884243,135.742202 294.201156,134.092777 294.201156,132.143727 C294.201156,129.563977 293.748362,125.516277 292.864924,119.937727 L290.146881,102.813202 L290.146881,102.813202 Z M226.444758,142.700727 L209.061383,42.4432269 L209.061383,122.066552 C209.061383,129.383777 209.354868,133.943602 209.95547,135.772802 C210.770755,138.231427 212.073337,139.460952 213.840214,139.460952 L215.425632,139.460952 L215.425632,142.700727 L199.774631,142.700727 L199.774631,139.460952 L201.360476,139.460952 C203.262807,139.460952 204.610114,137.931802 205.414324,134.873077 C205.901195,133.012852 206.13888,128.724602 206.13888,122.066552 L206.13888,44.2120769 C206.13888,38.9335769 205.924197,35.1251519 205.482052,32.7859519 C205.165139,31.0770269 204.59904,29.6673019 203.772254,28.5270269 C202.934393,27.3880269 201.609235,26.8176769 199.774631,26.8176769 L199.774631,23.5490019 L212.515056,23.5490019 L228.834386,116.788052 L244.893029,23.5490019 L257.633028,23.5490019 L257.633028,26.8176769 L256.070611,26.8176769 C254.145278,26.8176769 252.786044,28.3476769 251.99376,31.3766519 C251.506464,33.2657769 251.256852,37.5238519 251.256852,44.2120769 L251.256852,122.066552 C251.256852,129.383777 251.573765,133.943602 252.197369,135.772802 C253.012654,138.231427 254.303735,139.460952 256.070611,139.460952 L257.633028,139.460952 L257.633028,142.700727 L238.516853,142.700727 L238.516853,139.460952 L240.113772,139.460952 C242.039106,139.460952 243.386839,137.931802 244.168047,134.873077 C244.654918,133.012852 244.893029,128.724602 244.893029,122.066552 L244.893029,42.4432269 L227.543305,142.700727 L226.444758,142.700727 L226.444758,142.700727 Z" id="Fill-32" fill="#1A1918" sketch:type="MSShapeGroup"></path>
        </g>
    </g>
</svg>